<?xml version="1.0" encoding="utf-8"?>
<!-- Svg Vector Icons : http://www.onlinewebfonts.com/icon -->
<!DOCTYPE svg PUBLIC "-//W3C//DTD SVG 1.1//EN" "http://www.w3.org/Graphics/SVG/1.1/DTD/svg11.dtd">
<svg version="1.1" xmlns="http://www.w3.org/2000/svg" xmlns:xlink="http://www.w3.org/1999/xlink" x="0px" y="0px" viewBox="0 0 1000 1000" enable-background="new 0 0 1000 1000" xml:space="preserve">
<metadata> Svg Vector Icons : http://www.onlinewebfonts.com/icon </metadata>
<g><path d="M220,605c0-19.3-6.8-35.8-20.5-49.5S169.3,535,150,535s-35.8,6.8-49.5,20.5S80,585.7,80,605s6.8,35.8,20.5,49.5S130.7,675,150,675s35.8-6.8,49.5-20.5S220,624.3,220,605z M325,360c0-19.3-6.8-35.8-20.5-49.5S274.3,290,255,290s-35.8,6.8-49.5,20.5S185,340.7,185,360s6.8,35.8,20.5,49.5S235.7,430,255,430s35.8-6.8,49.5-20.5S325,379.3,325,360z M559.1,623l55.2-208.9c2.2-9.5,0.8-18.3-4.1-26.5s-11.9-13.6-21.1-16.1s-17.9-1.4-26.3,3.6s-13.9,12.1-16.4,21.6l-55.2,208.9c-21.9,1.8-41.4,9.8-58.5,23.8s-28.6,32-34.5,53.9c-7.3,28.1-3.6,54.7,10.9,79.8s35.9,41.4,64,48.7s54.7,3.6,79.8-10.9s41.4-35.9,48.7-64c5.8-21.9,4.7-43.2-3.3-64S577.3,635.4,559.1,623z M920,605c0-19.3-6.8-35.8-20.5-49.5S869.3,535,850,535s-35.8,6.8-49.5,20.5S780,585.7,780,605s6.8,35.8,20.5,49.5S830.7,675,850,675s35.8-6.8,49.5-20.5S920,624.3,920,605z M570,255c0-19.3-6.8-35.8-20.5-49.5S519.3,185,500,185s-35.8,6.8-49.5,20.5S430,235.7,430,255c0,19.3,6.8,35.8,20.5,49.5S480.7,325,500,325s35.8-6.8,49.5-20.5S570,274.3,570,255z M815,360c0-19.3-6.8-35.8-20.5-49.5S764.3,290,745,290s-35.8,6.8-49.5,20.5S675,340.7,675,360s6.8,35.8,20.5,49.5S725.7,430,745,430s35.8-6.8,49.5-20.5S815,379.3,815,360z M990,605c0,95.2-25.7,183.2-77.1,264.1c-6.9,10.6-16.8,15.9-29.5,15.9H116.6c-12.8,0-22.6-5.3-29.5-15.9C35.7,788.6,10,700.5,10,605c0-66.4,12.9-129.8,38.8-190.3S109.5,302,153.3,258.3s95.9-78.6,156.4-104.5c60.5-25.9,124-38.8,190.3-38.8s129.8,12.9,190.3,38.8c60.5,25.9,112.7,60.7,156.4,104.5s78.6,95.9,104.5,156.4S990,538.6,990,605z"/></g>
</svg>