<?xml version="1.0" encoding="UTF-8" standalone="yes"?>
<svg xmlns="http://www.w3.org/2000/svg" xmlns:xlink="http://www.w3.org/1999/xlink" width="64px" height="64px" viewBox="0 0 64 64" version="1.1" fill="#000000">
  <g id="surface274607">
    <path style=" stroke:none;fill-rule:nonzero;fill:#000000;fill-opacity:1;" d="M 41 2 C 31.074219 2 23 10.074219 23 20 C 23 29.925781 31.074219 38 41 38 C 50.925781 38 59 29.925781 59 20 C 59 10.074219 50.925781 2 41 2 Z M 41 4 C 49.820312 4 57 11.179688 57 20 C 57 28.820312 49.820312 36 41 36 C 32.179688 36 25 28.820312 25 20 C 25 11.179688 32.179688 4 41 4 Z M 41 7 C 33.832031 7 28 12.832031 28 20 C 28 27.167969 33.832031 33 41 33 C 48.167969 33 54 27.167969 54 20 C 54 17.4375 53.25 14.957031 51.832031 12.824219 C 51.527344 12.363281 50.902344 12.242188 50.445312 12.546875 C 49.984375 12.851562 49.859375 13.472656 50.167969 13.933594 C 51.367188 15.734375 52 17.832031 52 20 C 52 26.066406 47.066406 31 41 31 C 34.933594 31 30 26.066406 30 20 C 30 13.933594 34.933594 9 41 9 C 41.308594 9 41.613281 9.023438 41.917969 9.046875 C 42.480469 9.089844 42.949219 8.683594 42.996094 8.132812 C 43.042969 7.582031 42.632812 7.101562 42.082031 7.054688 C 41.726562 7.023438 41.367188 7 41 7 Z M 46.03125 8.101562 C 45.640625 8.089844 45.265625 8.308594 45.09375 8.683594 C 44.859375 9.1875 45.078125 9.78125 45.582031 10.011719 C 46.210938 10.300781 46.828125 10.660156 47.417969 11.085938 C 47.59375 11.214844 47.796875 11.273438 48 11.273438 C 48.308594 11.273438 48.617188 11.128906 48.8125 10.859375 C 49.132812 10.410156 49.03125 9.785156 48.582031 9.460938 C 47.890625 8.964844 47.160156 8.535156 46.417969 8.195312 C 46.292969 8.136719 46.160156 8.105469 46.03125 8.101562 Z M 41 11 C 40.449219 11 40 11.449219 40 12 L 40 13 C 37.789062 13 36 14.789062 36 17 C 36 19.210938 37.789062 21 40 21 L 42 21 C 43.105469 21 44 21.894531 44 23 C 44 24.105469 43.105469 25 42 25 L 42 23 C 42 22.449219 41.550781 22 41 22 C 40.449219 22 40 22.449219 40 23 L 40 25 C 38.894531 25 38 24.105469 38 23 C 38 22.449219 37.550781 22 37 22 C 36.449219 22 36 22.449219 36 23 C 36 25.210938 37.789062 27 40 27 L 40 28 C 40 28.550781 40.449219 29 41 29 C 41.550781 29 42 28.550781 42 28 L 42 27 C 44.210938 27 46 25.210938 46 23 C 46 20.789062 44.210938 19 42 19 L 42 17 C 42 16.449219 41.550781 16 41 16 C 40.449219 16 40 16.449219 40 17 L 40 19 C 38.894531 19 38 18.105469 38 17 C 38 15.894531 38.894531 15 40 15 L 42 15 C 43.105469 15 44 15.894531 44 17 C 44 17.550781 44.449219 18 45 18 C 45.550781 18 46 17.550781 46 17 C 46 14.789062 44.210938 13 42 13 L 42 12 C 42 11.449219 41.550781 11 41 11 Z M 18.328125 35.324219 C 17.722656 35.308594 17.117188 35.339844 16.511719 35.410156 L 4.648438 36.800781 C 3.273438 36.960938 2.207031 38.035156 2.027344 39.375 C 2.007812 39.515625 2 39.65625 2 39.800781 L 2 52.4375 C 2 54.097656 3.34375 55.4375 5 55.4375 C 5.242188 55.4375 5.488281 55.410156 5.726562 55.347656 L 12.28125 53.710938 C 13.964844 53.285156 15.746094 53.496094 17.28125 54.3125 L 29.859375 60.9375 C 32.472656 62.304688 35.585938 62.304688 38.195312 60.9375 L 59.480469 49.9375 C 61.777344 48.742188 62.664062 45.910156 61.46875 43.609375 C 61.15625 43.015625 60.71875 42.492188 60.1875 42.078125 L 60.140625 42.050781 C 59.007812 41.171875 57.53125 40.867188 56.140625 41.21875 L 42.714844 44.699219 C 41.984375 42.539062 39.886719 41.144531 37.613281 41.3125 L 35.425781 41.46875 C 34.585938 41.523438 33.742188 41.359375 32.980469 41 L 23.578125 36.5625 C 21.925781 35.78125 20.136719 35.363281 18.328125 35.324219 Z M 18.238281 37.320312 C 19.777344 37.359375 21.296875 37.722656 22.695312 38.390625 L 32.097656 42.828125 C 33.1875 43.34375 34.390625 43.566406 35.589844 43.480469 L 37.777344 43.320312 C 39.425781 43.199219 40.863281 44.441406 40.984375 46.09375 C 40.992188 46.167969 40.992188 46.246094 40.992188 46.320312 L 40.992188 46.730469 C 40.992188 47.125 40.761719 47.480469 40.402344 47.640625 L 37.40625 48.96875 C 35.1875 49.964844 32.667969 50.015625 30.410156 49.121094 L 25.410156 47.121094 C 24.898438 46.914062 24.316406 47.164062 24.113281 47.679688 C 23.910156 48.195312 24.160156 48.777344 24.671875 48.980469 L 29.671875 50.980469 C 32.441406 52.085938 35.542969 52.019531 38.265625 50.800781 L 41.265625 49.46875 C 42.324219 48.964844 42.992188 47.886719 42.972656 46.710938 L 56.613281 43.171875 C 58.019531 42.714844 59.53125 43.488281 59.984375 44.898438 C 60.402344 46.203125 59.773438 47.613281 58.519531 48.171875 L 58.511719 48.140625 L 37.226562 59.140625 C 35.199219 60.199219 32.777344 60.199219 30.75 59.140625 L 18.171875 52.539062 C 16.214844 51.507812 13.949219 51.234375 11.800781 51.769531 L 5.238281 53.410156 C 4.703125 53.542969 4.160156 53.214844 4.027344 52.679688 C 4.003906 52.589844 3.996094 52.5 4 52.410156 L 4 39.78125 C 3.992188 39.269531 4.375 38.839844 4.878906 38.78125 L 16.699219 37.390625 C 17.210938 37.332031 17.726562 37.308594 18.238281 37.320312 Z M 7 40 C 6.449219 40 6 40.449219 6 41 C 6 41.550781 6.449219 42 7 42 L 9 42 C 9.550781 42 10 41.550781 10 41 C 10 40.449219 9.550781 40 9 40 Z M 7 45 C 6.449219 45 6 45.449219 6 46 C 6 46.550781 6.449219 47 7 47 L 9 47 C 9.550781 47 10 46.550781 10 46 C 10 45.449219 9.550781 45 9 45 Z M 7 50 C 6.449219 50 6 50.449219 6 51 C 6 51.550781 6.449219 52 7 52 L 9 52 C 9.550781 52 10 51.550781 10 51 C 10 50.449219 9.550781 50 9 50 Z M 7 50 "/>
  </g>
</svg>
