<?xml version="1.0" encoding="utf-8"?>
<!-- Svg Vector Icons : http://www.onlinewebfonts.com/icon -->
<!DOCTYPE svg PUBLIC "-//W3C//DTD SVG 1.1//EN" "http://www.w3.org/Graphics/SVG/1.1/DTD/svg11.dtd">
<svg version="1.1" xmlns="http://www.w3.org/2000/svg" xmlns:xlink="http://www.w3.org/1999/xlink" x="0px" y="0px" viewBox="0 0 1000 1000" enable-background="new 0 0 1000 1000" xml:space="preserve">
<metadata> Svg Vector Icons : http://www.onlinewebfonts.com/icon </metadata>
<g><g transform="translate(0.000000,511.000000) scale(0.100000,-0.100000)"><path d="M4677,3097.5c-37.5-56.2-28.1-82,292.8-897.1c180.4-461.5,330.3-845.6,330.3-855c0-9.4-35.1-16.4-75-16.4c-142.9,0-707.4-70.3-1037.6-131.2C2166,837.1,985.5-83.4,404.6-1751.2C275.8-2125.9,57.9-2983.2,107.1-2934c4.7,7,117.1,171,245.9,363.1C1360.3-1071.9,2271.4-460.5,3754.1-287.2c283.4,32.8,1545.9,60.9,1545.9,32.8c0-11.7-149.9-395.9-330.3-857.3c-327.9-824.5-332.6-838.5-292.8-897.1c30.5-46.9,56.2-58.6,107.7-53.9c86.7,9.4,3337.8,2501.6,3361.2,2574.2c11.7,32.8,0,70.3-25.8,105.4c-25.8,30.4-770.6,613.7-1660.7,1297.7c-1215.7,934.6-1632.6,1241.4-1679.5,1241.4C4737.9,3156.1,4702.8,3137.3,4677,3097.5z"/><path d="M6440.8,3113.9c-23.4-23.4-39.8-56.2-39.8-72.6c0-56.2,171-669.9,196.8-700.4c11.7-18.7,522.3-412.3,1131.3-878.4C8338.1,998.8,8837,609.9,8837,602.9c-2.3-30.4-96-110.1-1054.1-883.1L6764-1102.3l-182.7-414.6c-199.1-445-208.5-508.3-93.7-552.8c46.8-16.4,75-14.1,119.5,16.4c217.8,142.9,3279.3,2522.7,3288.7,2555.5c7,23.4,4.7,60.9-2.4,82c-23.4,63.2-3300.3,2571.9-3361.3,2571.9C6501.7,3156.1,6461.9,3137.3,6440.8,3113.9z"/></g></g>
</svg>